<svg width="1440" height="908" viewBox="0 0 1440 908" fill="none" xmlns="http://www.w3.org/2000/svg">
<path d="M0 107H1440V888C1440 899.046 1431.05 908 1420 908H20C8.95432 908 0 899.046 0 888V107Z" fill="#0048FF" fill-opacity="0.7"/>
<g opacity="0.8">
<path d="M351 159C351 265.591 253.174 352 132.5 352C11.8258 352 -86 265.591 -86 159C-86 52.409 11.8258 -34 132.5 -34C253.174 -34 351 52.409 351 159Z" fill="#F3F3F3" fill-opacity="0.09"/>
<path d="M460 159C460 318.61 313.373 448 132.5 448C-48.3733 448 -195 318.61 -195 159C-195 -0.610291 -48.3733 -130 132.5 -130C313.373 -130 460 -0.610291 460 159Z" fill="white" fill-opacity="0.1"/>
<path d="M656 158.5C656 413.932 421.621 621 132.5 621C-156.621 621 -391 413.932 -391 158.5C-391 -96.9317 -156.621 -304 132.5 -304C421.621 -304 656 -96.9317 656 158.5Z" fill="white" fill-opacity="0.07"/>
<path d="M767 159.5C767 468.503 483.372 719 133.5 719C-216.372 719 -500 468.503 -500 159.5C-500 -149.503 -216.372 -400 133.5 -400C483.372 -400 767 -149.503 767 159.5Z" fill="white" fill-opacity="0.04"/>
</g>
</svg>
