<svg width="505" height="229" viewBox="0 0 505 229" fill="none" xmlns="http://www.w3.org/2000/svg">
<path opacity="0.4" d="M101.744 131C115.504 131 124.208 123 124.208 109.56C124.208 96.12 115.504 88.12 101.744 88.12H81.072V131H101.744ZM101.744 96.76C110.448 96.76 113.968 99.256 113.968 109.56C113.968 119.864 110.448 122.36 101.744 122.36H90.672V96.76H101.744ZM137.973 95.672V88.12H128.373V95.672H137.973ZM137.973 131V98.936H128.373V131H137.973ZM159.19 131.64C169.11 131.64 175.062 127.672 175.062 121.656C175.062 116.344 171.862 113.464 163.286 112.504L156.438 111.672C152.214 111.16 151.318 110.456 151.318 108.792C151.318 106.744 152.534 105.912 157.333 105.912C163.222 105.912 164.502 107.256 164.502 109.88V110.264H174.102V110.072C174.102 102.264 168.15 98.296 157.654 98.296C146.646 98.296 141.846 102.776 141.846 108.408C141.846 113.784 145.43 116.664 151.83 117.368L160.854 118.456C164.63 118.968 165.59 119.48 165.59 121.272C165.59 123.192 164.374 124.024 159.253 124.024C153.814 124.024 152.022 123.256 152.022 120.376V119.8H142.422V119.992C142.422 127.416 148.374 131.64 159.19 131.64ZM195.959 131.64C206.135 131.64 212.919 126.776 212.919 119.8V119.096H203.319V119.736C203.319 122.488 201.335 123.96 195.639 123.96C189.431 123.96 187.127 121.848 186.871 116.92H212.983C213.111 115.832 213.239 115 213.239 113.848C213.239 103.8 206.263 98.296 195.767 98.296C185.207 98.296 177.975 104.76 177.975 115C177.975 126.392 185.271 131.64 195.959 131.64ZM195.575 105.784C201.207 105.784 203.767 107.64 204.023 111.864H186.999C187.447 107.704 189.879 105.784 195.575 105.784ZM226.91 131V114.808C226.91 109.368 229.086 106.936 235.166 106.936C241.054 106.936 243.166 109.112 243.166 114.232V131H252.766V111.032C252.766 103.928 248.606 98.296 239.838 98.296C231.454 98.296 227.614 103.416 226.782 108.792H226.206V98.936H217.31V131H226.91ZM274.711 131.64C285.655 131.64 293.015 125.112 293.015 115C293.015 104.76 285.655 98.296 274.711 98.296C263.767 98.296 256.407 104.76 256.407 115C256.407 125.112 263.767 131.64 274.711 131.64ZM274.711 123.128C268.183 123.128 265.943 120.632 265.943 115C265.943 109.368 268.183 106.744 274.711 106.744C281.175 106.744 283.479 109.368 283.479 115C283.479 120.632 281.175 123.128 274.711 123.128ZM324.986 131L330.554 115.576L332.986 106.744H333.69L336.058 115.576L341.562 131H353.53L362.618 98.936H352.826L349.114 113.592L347.706 123.576H347.066L344.506 112.632L339.706 98.936H327.354L322.49 112.632L319.93 123.576H319.29L317.946 113.592L314.17 98.936H304.25L313.018 131H324.986ZM382.209 131.64C392.385 131.64 399.169 126.776 399.169 119.8V119.096H389.569V119.736C389.569 122.488 387.585 123.96 381.889 123.96C375.681 123.96 373.377 121.848 373.121 116.92H399.233C399.361 115.832 399.489 115 399.489 113.848C399.489 103.8 392.513 98.296 382.017 98.296C371.457 98.296 364.225 104.76 364.225 115C364.225 126.392 371.521 131.64 382.209 131.64ZM381.825 105.784C387.457 105.784 390.017 107.64 390.273 111.864H373.249C373.697 107.704 376.129 105.784 381.825 105.784ZM412.456 131V122.104H413.032C414.184 128.44 418.408 131.64 425.832 131.64C435.816 131.64 441.256 125.112 441.256 115C441.256 104.76 435.88 98.296 426.28 98.296C418.664 98.296 414.76 102.072 413.672 107.448H413.16V88.12H403.56V131H412.456ZM413.16 115.192V114.68C413.16 109.112 416.36 107.064 422.568 107.064C428.712 107.064 431.528 109.112 431.528 115C431.528 120.824 428.712 122.872 422.504 122.872C416.424 122.872 413.16 120.76 413.16 115.192Z" fill="#59F2E0"/>
<path opacity="0.1" d="M163.744 210C177.504 210 186.208 202 186.208 188.56C186.208 175.12 177.504 167.12 163.744 167.12H143.072V210H163.744ZM163.744 175.76C172.448 175.76 175.968 178.256 175.968 188.56C175.968 198.864 172.448 201.36 163.744 201.36H152.672V175.76H163.744ZM199.973 174.672V167.12H190.373V174.672H199.973ZM199.973 210V177.936H190.373V210H199.973ZM221.19 210.64C231.11 210.64 237.062 206.672 237.062 200.656C237.062 195.344 233.862 192.464 225.286 191.504L218.438 190.672C214.214 190.16 213.318 189.456 213.318 187.792C213.318 185.744 214.534 184.912 219.333 184.912C225.222 184.912 226.502 186.256 226.502 188.88V189.264H236.102V189.072C236.102 181.264 230.15 177.296 219.654 177.296C208.646 177.296 203.846 181.776 203.846 187.408C203.846 192.784 207.43 195.664 213.83 196.368L222.854 197.456C226.63 197.968 227.59 198.48 227.59 200.272C227.59 202.192 226.374 203.024 221.253 203.024C215.814 203.024 214.022 202.256 214.022 199.376V198.8H204.422V198.992C204.422 206.416 210.374 210.64 221.19 210.64ZM257.959 210.64C268.135 210.64 274.919 205.776 274.919 198.8V198.096H265.319V198.736C265.319 201.488 263.335 202.96 257.639 202.96C251.431 202.96 249.127 200.848 248.871 195.92H274.983C275.111 194.832 275.239 194 275.239 192.848C275.239 182.8 268.263 177.296 257.767 177.296C247.207 177.296 239.975 183.76 239.975 194C239.975 205.392 247.271 210.64 257.959 210.64ZM257.575 184.784C263.207 184.784 265.767 186.64 266.023 190.864H248.999C249.447 186.704 251.879 184.784 257.575 184.784ZM288.91 210V193.808C288.91 188.368 291.086 185.936 297.166 185.936C303.054 185.936 305.166 188.112 305.166 193.232V210H314.766V190.032C314.766 182.928 310.606 177.296 301.838 177.296C293.454 177.296 289.614 182.416 288.782 187.792H288.206V177.936H279.31V210H288.91ZM336.711 210.64C347.655 210.64 355.015 204.112 355.015 194C355.015 183.76 347.655 177.296 336.711 177.296C325.767 177.296 318.407 183.76 318.407 194C318.407 204.112 325.767 210.64 336.711 210.64ZM336.711 202.128C330.183 202.128 327.943 199.632 327.943 194C327.943 188.368 330.183 185.744 336.711 185.744C343.175 185.744 345.479 188.368 345.479 194C345.479 199.632 343.175 202.128 336.711 202.128ZM386.986 210L392.554 194.576L394.986 185.744H395.69L398.058 194.576L403.562 210H415.53L424.618 177.936H414.826L411.114 192.592L409.706 202.576H409.066L406.506 191.632L401.706 177.936H389.354L384.49 191.632L381.93 202.576H381.29L379.946 192.592L376.17 177.936H366.25L375.018 210H386.986ZM444.209 210.64C454.385 210.64 461.169 205.776 461.169 198.8V198.096H451.569V198.736C451.569 201.488 449.585 202.96 443.889 202.96C437.681 202.96 435.377 200.848 435.121 195.92H461.233C461.361 194.832 461.489 194 461.489 192.848C461.489 182.8 454.513 177.296 444.017 177.296C433.457 177.296 426.225 183.76 426.225 194C426.225 205.392 433.521 210.64 444.209 210.64ZM443.825 184.784C449.457 184.784 452.017 186.64 452.273 190.864H435.249C435.697 186.704 438.129 184.784 443.825 184.784ZM474.456 210V201.104H475.032C476.184 207.44 480.408 210.64 487.832 210.64C497.816 210.64 503.256 204.112 503.256 194C503.256 183.76 497.88 177.296 488.28 177.296C480.664 177.296 476.76 181.072 475.672 186.448H475.16V167.12H465.56V210H474.456ZM475.16 194.192V193.68C475.16 188.112 478.36 186.064 484.568 186.064C490.712 186.064 493.528 188.112 493.528 194C493.528 199.824 490.712 201.872 484.504 201.872C478.424 201.872 475.16 199.76 475.16 194.192Z" fill="#59F2E0"/>
<path d="M23.744 60C37.504 60 46.208 52 46.208 38.56C46.208 25.12 37.504 17.12 23.744 17.12H3.072V60H23.744ZM23.744 25.76C32.448 25.76 35.968 28.256 35.968 38.56C35.968 48.864 32.448 51.36 23.744 51.36H12.672V25.76H23.744ZM59.9725 24.672V17.12H50.3725V24.672H59.9725ZM59.9725 60V27.936H50.3725V60H59.9725ZM81.1895 60.64C91.1095 60.64 97.0615 56.672 97.0615 50.656C97.0615 45.344 93.8615 42.464 85.2855 41.504L78.4375 40.672C74.2135 40.16 73.3175 39.456 73.3175 37.792C73.3175 35.744 74.5335 34.912 79.3335 34.912C85.2215 34.912 86.5015 36.256 86.5015 38.88V39.264H96.1015V39.072C96.1015 31.264 90.1495 27.296 79.6535 27.296C68.6455 27.296 63.8455 31.776 63.8455 37.408C63.8455 42.784 67.4295 45.664 73.8295 46.368L82.8535 47.456C86.6295 47.968 87.5895 48.48 87.5895 50.272C87.5895 52.192 86.3735 53.024 81.2535 53.024C75.8135 53.024 74.0215 52.256 74.0215 49.376V48.8H64.4215V48.992C64.4215 56.416 70.3735 60.64 81.1895 60.64ZM117.959 60.64C128.135 60.64 134.919 55.776 134.919 48.8V48.096H125.319V48.736C125.319 51.488 123.335 52.96 117.639 52.96C111.431 52.96 109.127 50.848 108.871 45.92H134.983C135.111 44.832 135.239 44 135.239 42.848C135.239 32.8 128.263 27.296 117.767 27.296C107.207 27.296 99.975 33.76 99.975 44C99.975 55.392 107.271 60.64 117.959 60.64ZM117.575 34.784C123.207 34.784 125.767 36.64 126.023 40.864H108.999C109.447 36.704 111.879 34.784 117.575 34.784ZM148.91 60V43.808C148.91 38.368 151.086 35.936 157.166 35.936C163.054 35.936 165.166 38.112 165.166 43.232V60H174.766V40.032C174.766 32.928 170.606 27.296 161.838 27.296C153.454 27.296 149.614 32.416 148.782 37.792H148.206V27.936H139.31V60H148.91ZM196.711 60.64C207.655 60.64 215.015 54.112 215.015 44C215.015 33.76 207.655 27.296 196.711 27.296C185.767 27.296 178.407 33.76 178.407 44C178.407 54.112 185.767 60.64 196.711 60.64ZM196.711 52.128C190.183 52.128 187.943 49.632 187.943 44C187.943 38.368 190.183 35.744 196.711 35.744C203.175 35.744 205.479 38.368 205.479 44C205.479 49.632 203.175 52.128 196.711 52.128ZM246.986 60L252.554 44.576L254.986 35.744H255.69L258.058 44.576L263.562 60H275.53L284.618 27.936H274.826L271.114 42.592L269.706 52.576H269.066L266.506 41.632L261.706 27.936H249.354L244.49 41.632L241.93 52.576H241.29L239.946 42.592L236.17 27.936H226.25L235.018 60H246.986ZM304.209 60.64C314.385 60.64 321.169 55.776 321.169 48.8V48.096H311.569V48.736C311.569 51.488 309.585 52.96 303.889 52.96C297.681 52.96 295.377 50.848 295.121 45.92H321.233C321.361 44.832 321.489 44 321.489 42.848C321.489 32.8 314.513 27.296 304.017 27.296C293.457 27.296 286.225 33.76 286.225 44C286.225 55.392 293.521 60.64 304.209 60.64ZM303.825 34.784C309.457 34.784 312.017 36.64 312.273 40.864H295.249C295.697 36.704 298.129 34.784 303.825 34.784ZM334.456 60V51.104H335.032C336.184 57.44 340.408 60.64 347.832 60.64C357.816 60.64 363.256 54.112 363.256 44C363.256 33.76 357.88 27.296 348.28 27.296C340.664 27.296 336.76 31.072 335.672 36.448H335.16V17.12H325.56V60H334.456ZM335.16 44.192V43.68C335.16 38.112 338.36 36.064 344.568 36.064C350.712 36.064 353.528 38.112 353.528 44C353.528 49.824 350.712 51.872 344.504 51.872C338.424 51.872 335.16 49.76 335.16 44.192Z" fill="#59F2E0"/>
</svg>
