<svg width="1440" height="468" viewBox="0 0 1440 468" fill="none" xmlns="http://www.w3.org/2000/svg">
<path d="M1008.48 81.9046C1288.23 92.4372 1345.77 -23.0013 1436.2 4.14679C1439.57 131.903 1488.92 383.412 1482.03 391.077C1475.14 398.742 500.375 379.474 -41.568 376.28L-42.042 251.718C72.9708 175.065 -18.3231 154.407 397.73 160.201C691.655 164.294 695.341 70.1149 1008.48 81.9046Z" fill="#4F84F8" fill-opacity="0.1"/>
<path d="M1023.45 204.968C1303.19 214.352 1360.78 111.508 1451.2 135.694C1454.51 249.511 1503.76 473.578 1496.87 480.407C1489.98 487.236 515.218 470.07 -26.7242 467.225L-27.1465 356.254C87.8981 287.964 -3.3871 269.56 412.664 274.722C706.587 278.368 710.312 194.465 1023.45 204.968Z" fill="#0048FF" fill-opacity="0.7"/>
</svg>
