<svg width="40" height="40" viewBox="0 0 40 40" fill="none" xmlns="http://www.w3.org/2000/svg">
<path fill-rule="evenodd" clip-rule="evenodd" d="M3.75 22.5C3.75 14.9061 9.90608 8.75 17.5 8.75C18.1904 8.75 18.75 9.30964 18.75 10V21.25H30C30.6904 21.25 31.25 21.8096 31.25 22.5C31.25 30.0939 25.0939 36.25 17.5 36.25C9.90608 36.25 3.75 30.0939 3.75 22.5Z" fill="#0F172A"/>
<path fill-rule="evenodd" clip-rule="evenodd" d="M21.25 5C21.25 4.30964 21.8096 3.75 22.5 3.75C30.0939 3.75 36.25 9.90608 36.25 17.5C36.25 18.1904 35.6904 18.75 35 18.75H22.5C21.8096 18.75 21.25 18.1904 21.25 17.5V5Z" fill="#0F172A"/>
</svg>
