<svg width="40" height="40" viewBox="0 0 40 40" fill="none" xmlns="http://www.w3.org/2000/svg">
<path d="M32.5 35C35.2614 35 37.5 32.7614 37.5 30V22.5C37.5 19.7386 35.2614 17.5 32.5 17.5H7.5C4.73858 17.5 2.5 19.7386 2.5 22.5V30C2.5 32.7614 4.73858 35 7.5 35H32.5Z" fill="#0F172A"/>
<path d="M2.5 16.9097V10C2.5 7.23858 4.73858 5 7.5 5H16.4645C17.459 5 18.4129 5.39509 19.1161 6.09835L22.6517 9.63388C22.8861 9.8683 23.204 10 23.5355 10H32.5C35.2614 10 37.5 12.2386 37.5 15V16.9097C36.1731 15.7221 34.4209 15 32.5 15H7.5C5.57911 15 3.82689 15.7221 2.5 16.9097Z" fill="#0F172A"/>
</svg>
