<svg width="40" height="40" viewBox="0 0 40 40" fill="none" xmlns="http://www.w3.org/2000/svg">
<path fill-rule="evenodd" clip-rule="evenodd" d="M20 2.5C15.1675 2.5 11.25 6.41751 11.25 11.25V16.25C8.48858 16.25 6.25 18.4886 6.25 21.25V32.5C6.25 35.2614 8.48858 37.5 11.25 37.5H28.75C31.5114 37.5 33.75 35.2614 33.75 32.5V21.25C33.75 18.4886 31.5114 16.25 28.75 16.25V11.25C28.75 6.41751 24.8325 2.5 20 2.5ZM26.25 16.25V11.25C26.25 7.79822 23.4518 5 20 5C16.5482 5 13.75 7.79822 13.75 11.25V16.25H26.25Z" fill="#0F172A"/>
</svg>
