<svg width="40" height="40" viewBox="0 0 40 40" fill="none" xmlns="http://www.w3.org/2000/svg">
<path d="M34.1707 5.81282C30.4105 2.06655 25.4105 0.00228568 20.0834 0C9.10597 0 0.17257 8.89125 0.168175 19.8199C0.166896 23.3132 1.0837 26.7233 2.8263 29.7291L0.000976562 40L10.5582 37.2439C13.467 38.8233 16.742 39.6555 20.0748 39.6568H20.0833H20.0834C31.059 39.6568 39.9937 30.764 39.9984 19.8359C40.0002 14.5394 37.9305 9.55935 34.1707 5.81282ZM20.0834 36.3092H20.0769C17.1062 36.3076 14.1931 35.5136 11.6521 34.0124L11.0474 33.6555L4.78248 35.2909L6.45512 29.2117L6.06113 28.5885C4.40406 25.9653 3.52927 22.9339 3.53052 19.8211C3.53416 10.7376 10.9593 3.34778 20.0896 3.34778C24.511 3.34961 28.6667 5.06544 31.792 8.17922C34.9172 11.293 36.6371 15.4323 36.6357 19.8345C36.6319 28.9183 29.2065 36.3092 20.0834 36.3092Z" fill="#E0E0E0"/>
<path d="M0.915039 38.8604L3.61131 29.0588C1.94788 26.1902 1.07312 22.9357 1.07417 19.6025C1.07853 9.17333 9.60393 0.688477 20.079 0.688477C25.163 0.690762 29.9347 2.66063 33.5224 6.23587C37.1108 9.81107 39.0858 14.5633 39.0838 19.6173C39.0794 30.0468 30.5535 38.5324 20.0797 38.5324C20.079 38.5324 20.0803 38.5324 20.0797 38.5324H20.0713C16.8907 38.5313 13.7655 37.7364 10.9899 36.2303L0.915039 38.8604Z" fill="url(#paint0_linear_69_36)"/>
<path fill-rule="evenodd" clip-rule="evenodd" d="M15.1621 11.4053C14.7937 10.5897 14.4057 10.5734 14.0552 10.5591C13.7685 10.5469 13.4403 10.5476 13.1126 10.5476C12.7846 10.5476 12.2516 10.6703 11.8009 11.1604C11.35 11.6504 10.0791 12.8351 10.0791 15.2445C10.0791 17.6542 11.8419 19.9825 12.0877 20.3095C12.3336 20.636 15.4906 25.7385 20.4903 27.7015C24.6455 29.3328 25.4911 29.0083 26.393 28.9267C27.2949 28.8451 29.3032 27.7423 29.7132 26.5987C30.1231 25.4553 30.1231 24.4752 30.0002 24.2704C29.8772 24.0663 29.5492 23.9439 29.0572 23.699C28.5653 23.4541 26.147 22.2691 25.6961 22.1059C25.2451 21.9426 24.9172 21.861 24.5892 22.3513C24.2612 22.8411 23.3191 23.9439 23.0321 24.2704C22.7451 24.5977 22.4581 24.6385 21.9662 24.3936C21.4742 24.1479 19.89 23.6313 18.0106 21.963C16.5483 20.665 15.561 19.062 15.2741 18.5717C14.9871 18.0819 15.2433 17.8166 15.4901 17.5725C15.7109 17.3531 15.982 17.0008 16.228 16.7148C16.4735 16.4288 16.5554 16.2248 16.7194 15.8982C16.8834 15.5712 16.8014 15.2853 16.6784 15.0404C16.5554 14.7955 15.5995 12.3736 15.1621 11.4053Z" fill="white"/>
<path d="M34.008 5.74977C30.2909 2.04651 25.3483 0.00598045 20.0824 0.00366211C9.23093 0.00366211 0.400095 8.79284 0.395733 19.596C0.394453 23.0493 1.30073 26.4202 3.02332 29.3916L0.230469 39.5445L10.6666 36.82C13.5419 38.3812 16.7793 39.2039 20.0739 39.2052H20.0823C30.9319 39.2052 39.7641 30.4145 39.7687 19.6118C39.7705 14.3762 37.7246 9.4533 34.008 5.74977ZM20.0824 35.8961H20.076C17.1394 35.8945 14.2596 35.1096 11.7478 33.6257L11.15 33.2729L4.95707 34.8894L6.61049 28.8801L6.22103 28.264C4.58298 25.6709 3.71823 22.6743 3.71951 19.5973C3.72308 10.6181 11.0629 3.31307 20.0885 3.31307C24.4592 3.31487 28.5671 5.01101 31.6566 8.08904C34.7459 11.1671 36.446 15.2588 36.4447 19.6106C36.4408 28.59 29.1007 35.8961 20.0824 35.8961Z" fill="white"/>
<defs>
<linearGradient id="paint0_linear_69_36" x1="19.9994" y1="38.8604" x2="19.9994" y2="0.68854" gradientUnits="userSpaceOnUse">
<stop stop-color="#20B038"/>
<stop offset="1" stop-color="#60D66A"/>
</linearGradient>
</defs>
</svg>
