<svg width="311" height="229" viewBox="0 0 311 229" fill="none" xmlns="http://www.w3.org/2000/svg">
<path opacity="0.4" d="M89.432 131L93.528 121.528H114.968L119 131H130.008L111.128 88.12H97.432L78.68 131H89.432ZM101.272 103.544L103.896 96.888H104.6L107.224 103.544L111.256 112.888H97.24L101.272 103.544ZM141.848 141.88V122.36H142.296C143.384 127.992 147.48 131.64 154.904 131.64C164.568 131.64 169.944 125.176 169.944 115C169.944 104.824 164.44 98.296 154.584 98.296C147.032 98.296 142.936 101.56 141.784 107.704H141.144V98.936H132.248V141.88H141.848ZM141.848 115.448V114.936C141.848 109.24 145.048 107.128 151.256 107.128C157.336 107.128 160.216 109.112 160.216 115C160.216 120.824 157.336 122.872 151.192 122.872C145.176 122.872 141.848 120.952 141.848 115.448ZM183.535 141.88V122.36H183.983C185.071 127.992 189.167 131.64 196.591 131.64C206.255 131.64 211.631 125.176 211.631 115C211.631 104.824 206.127 98.296 196.271 98.296C188.719 98.296 184.623 101.56 183.471 107.704H182.831V98.936H173.935V141.88H183.535ZM183.535 115.448V114.936C183.535 109.24 186.735 107.128 192.943 107.128C199.023 107.128 201.903 109.112 201.903 115C201.903 120.824 199.023 122.872 192.879 122.872C186.863 122.872 183.535 120.952 183.535 115.448ZM231.815 131.64C241.735 131.64 247.687 127.672 247.687 121.656C247.687 116.344 244.487 113.464 235.911 112.504L229.062 111.672C224.839 111.16 223.943 110.456 223.943 108.792C223.943 106.744 225.159 105.912 229.958 105.912C235.847 105.912 237.127 107.256 237.127 109.88V110.264H246.727V110.072C246.727 102.264 240.775 98.296 230.279 98.296C219.271 98.296 214.471 102.776 214.471 108.408C214.471 113.784 218.055 116.664 224.455 117.368L233.479 118.456C237.255 118.968 238.215 119.48 238.215 121.272C238.215 123.192 236.999 124.024 231.878 124.024C226.439 124.024 224.647 123.256 224.647 120.376V119.8H215.047V119.992C215.047 127.416 220.999 131.64 231.815 131.64Z" fill="#59F2E0"/>
<path opacity="0.1" d="M151.432 210L155.528 200.528H176.968L181 210H192.008L173.128 167.12H159.432L140.68 210H151.432ZM163.272 182.544L165.896 175.888H166.6L169.224 182.544L173.256 191.888H159.24L163.272 182.544ZM203.848 220.88V201.36H204.296C205.384 206.992 209.48 210.64 216.904 210.64C226.568 210.64 231.944 204.176 231.944 194C231.944 183.824 226.44 177.296 216.584 177.296C209.032 177.296 204.936 180.56 203.784 186.704H203.144V177.936H194.248V220.88H203.848ZM203.848 194.448V193.936C203.848 188.24 207.048 186.128 213.256 186.128C219.336 186.128 222.216 188.112 222.216 194C222.216 199.824 219.336 201.872 213.192 201.872C207.176 201.872 203.848 199.952 203.848 194.448ZM245.535 220.88V201.36H245.983C247.071 206.992 251.167 210.64 258.591 210.64C268.255 210.64 273.631 204.176 273.631 194C273.631 183.824 268.127 177.296 258.271 177.296C250.719 177.296 246.623 180.56 245.471 186.704H244.831V177.936H235.935V220.88H245.535ZM245.535 194.448V193.936C245.535 188.24 248.735 186.128 254.943 186.128C261.023 186.128 263.903 188.112 263.903 194C263.903 199.824 261.023 201.872 254.879 201.872C248.863 201.872 245.535 199.952 245.535 194.448ZM293.815 210.64C303.735 210.64 309.687 206.672 309.687 200.656C309.687 195.344 306.487 192.464 297.911 191.504L291.062 190.672C286.839 190.16 285.943 189.456 285.943 187.792C285.943 185.744 287.159 184.912 291.958 184.912C297.847 184.912 299.127 186.256 299.127 188.88V189.264H308.727V189.072C308.727 181.264 302.775 177.296 292.279 177.296C281.271 177.296 276.471 181.776 276.471 187.408C276.471 192.784 280.055 195.664 286.455 196.368L295.479 197.456C299.255 197.968 300.215 198.48 300.215 200.272C300.215 202.192 298.999 203.024 293.878 203.024C288.439 203.024 286.647 202.256 286.647 199.376V198.8H277.047V198.992C277.047 206.416 282.999 210.64 293.815 210.64Z" fill="#59F2E0"/>
<path d="M11.432 60L15.528 50.528H36.968L41 60H52.008L33.128 17.12H19.432L0.68 60H11.432ZM23.272 32.544L25.896 25.888H26.6L29.224 32.544L33.256 41.888H19.24L23.272 32.544ZM63.8475 70.88V51.36H64.2955C65.3835 56.992 69.4795 60.64 76.9035 60.64C86.5675 60.64 91.9435 54.176 91.9435 44C91.9435 33.824 86.4395 27.296 76.5835 27.296C69.0315 27.296 64.9355 30.56 63.7835 36.704H63.1435V27.936H54.2475V70.88H63.8475ZM63.8475 44.448V43.936C63.8475 38.24 67.0475 36.128 73.2555 36.128C79.3355 36.128 82.2155 38.112 82.2155 44C82.2155 49.824 79.3355 51.872 73.1915 51.872C67.1755 51.872 63.8475 49.952 63.8475 44.448ZM105.535 70.88V51.36H105.983C107.071 56.992 111.167 60.64 118.591 60.64C128.255 60.64 133.631 54.176 133.631 44C133.631 33.824 128.127 27.296 118.271 27.296C110.719 27.296 106.623 30.56 105.471 36.704H104.831V27.936H95.935V70.88H105.535ZM105.535 44.448V43.936C105.535 38.24 108.735 36.128 114.943 36.128C121.023 36.128 123.903 38.112 123.903 44C123.903 49.824 121.023 51.872 114.879 51.872C108.863 51.872 105.535 49.952 105.535 44.448ZM153.815 60.64C163.735 60.64 169.687 56.672 169.687 50.656C169.687 45.344 166.487 42.464 157.911 41.504L151.062 40.672C146.839 40.16 145.943 39.456 145.943 37.792C145.943 35.744 147.159 34.912 151.958 34.912C157.847 34.912 159.127 36.256 159.127 38.88V39.264H168.727V39.072C168.727 31.264 162.775 27.296 152.279 27.296C141.271 27.296 136.471 31.776 136.471 37.408C136.471 42.784 140.055 45.664 146.455 46.368L155.479 47.456C159.255 47.968 160.215 48.48 160.215 50.272C160.215 52.192 158.999 53.024 153.878 53.024C148.439 53.024 146.647 52.256 146.647 49.376V48.8H137.047V48.992C137.047 56.416 142.999 60.64 153.815 60.64Z" fill="#59F2E0"/>
</svg>
