<svg width="40" height="40" viewBox="0 0 40 40" fill="none" xmlns="http://www.w3.org/2000/svg">
<path fill-rule="evenodd" clip-rule="evenodd" d="M5 10C5 7.23858 7.23858 5 10 5H30C32.7614 5 35 7.23858 35 10V30C35 32.7614 32.7614 35 30 35H10C7.23858 35 5 32.7614 5 30V10ZM28.75 20C28.75 20.3315 28.6183 20.6495 28.3839 20.8839L24.6339 24.6339C24.1457 25.122 23.3543 25.122 22.8661 24.6339C22.378 24.1457 22.378 23.3543 22.8661 22.8661L25.7322 20L22.8661 17.1339C22.378 16.6457 22.378 15.8543 22.8661 15.3661C23.3543 14.878 24.1457 14.878 24.6339 15.3661L28.3839 19.1161C28.6183 19.3505 28.75 19.6685 28.75 20ZM11.6161 19.1161C11.3817 19.3505 11.25 19.6685 11.25 20C11.25 20.3315 11.3817 20.6495 11.6161 20.8839L15.3661 24.6339C15.8543 25.122 16.6457 25.122 17.1339 24.6339C17.622 24.1457 17.622 23.3543 17.1339 22.8661L14.2678 20L17.1339 17.1339C17.622 16.6457 17.622 15.8543 17.1339 15.3661C16.6457 14.878 15.8543 14.878 15.3661 15.3661L11.6161 19.1161Z" fill="#0F172A"/>
</svg>
