<svg width="33" height="34" viewBox="0 0 33 34" fill="none" xmlns="http://www.w3.org/2000/svg">
<path d="M13.6893 11.5771C14.068 11.2763 14.5178 11.0575 15 10.9208V15.5791C14.5086 15.4396 14.0601 15.2174 13.6893 14.9229C13.0331 14.4016 12.7792 13.7883 12.7792 13.25C12.7792 12.7117 13.0331 12.0984 13.6893 11.5771Z" fill="#0F172A"/>
<path d="M17.5 23.1027V18.3972C18.0787 18.538 18.6063 18.7763 19.0356 19.0983C19.7463 19.6314 20 20.2414 20 20.75C20 21.2585 19.7463 21.8685 19.0356 22.4016C18.6063 22.7236 18.0787 22.962 17.5 23.1027Z" fill="#0F172A"/>
<path fill-rule="evenodd" clip-rule="evenodd" d="M16.25 0.75C7.27537 0.75 0 8.02537 0 17C0 25.9746 7.27537 33.25 16.25 33.25C25.2246 33.25 32.5 25.9746 32.5 17C32.5 8.02537 25.2246 0.75 16.25 0.75ZM17.5 7C17.5 6.30964 16.9404 5.75 16.25 5.75C15.5596 5.75 15 6.30964 15 7V8.35938C13.9552 8.54448 12.9589 8.96456 12.1343 9.61959C10.947 10.5628 10.2792 11.8688 10.2792 13.25C10.2792 14.6312 10.947 15.9372 12.1343 16.8804C12.9717 17.5457 13.9711 17.9584 15 18.1406V23.1026C14.4214 22.9618 13.894 22.7235 13.4648 22.4016L12 21.303C11.4477 20.8888 10.6642 21.0007 10.25 21.553C9.83579 22.1052 9.9477 22.8887 10.5 23.303L11.9648 24.4016C12.8534 25.0681 13.9132 25.4759 15 25.6505V27C15 27.6904 15.5596 28.25 16.25 28.25C16.9404 28.25 17.5 27.6904 17.5 27V25.6506C18.5869 25.476 19.6468 25.0682 20.5356 24.4016C21.7774 23.4702 22.5 22.1608 22.5 20.75C22.5 19.3391 21.7774 18.0297 20.5356 17.0983C19.6468 16.4317 18.5869 16.0239 17.5 15.8493V10.9209C17.982 11.0577 18.4316 11.2764 18.8102 11.5771L19.5017 12.1264C20.0422 12.5558 20.8285 12.4657 21.258 11.9252C21.6874 11.3846 21.5973 10.5983 21.0567 10.1689L20.3652 9.61959C19.5408 8.96465 18.5447 8.54461 17.5 8.35946V7Z" fill="#0F172A"/>
</svg>
