<svg width="326" height="196" viewBox="0 0 326 196" fill="none" xmlns="http://www.w3.org/2000/svg">
<path opacity="0.4" d="M87.7395 112.316C99.1879 112.316 106.473 106.619 106.473 97.3073V96.4857H97.3255V97.3073C97.3255 102.128 94.5866 104.428 87.9038 104.428C79.8515 104.428 76.8388 101.58 76.8388 93.4182C76.8388 85.2563 79.8515 82.4079 87.9038 82.4079C94.5866 82.4079 97.3255 84.7086 97.3255 89.529V90.3506H106.473V89.529C106.473 80.2168 99.1331 74.52 87.7395 74.52C75.6337 74.52 68.1292 81.9697 68.1292 93.4182C68.1292 104.867 75.6337 112.316 87.7395 112.316ZM124.659 112.316C134.026 112.316 140.326 106.729 140.326 98.0742C140.326 89.3099 134.026 83.7774 124.659 83.7774C115.292 83.7774 108.993 89.3099 108.993 98.0742C108.993 106.729 115.292 112.316 124.659 112.316ZM124.659 105.031C119.072 105.031 117.155 102.895 117.155 98.0742C117.155 93.2538 119.072 91.008 124.659 91.008C130.192 91.008 132.164 93.2538 132.164 98.0742C132.164 102.895 130.192 105.031 124.659 105.031ZM155.951 112.316C162.251 112.316 165.866 109.577 166.907 104.155H167.345V111.769H175.014V75.0678H166.797V91.6105H166.304C165.373 87.0092 162.032 83.7774 155.513 83.7774C147.351 83.7774 142.695 89.3099 142.695 98.0742C142.695 106.729 147.406 112.316 155.951 112.316ZM151.021 98.0742C151.021 93.0347 153.486 91.2818 158.745 91.2818C164.004 91.2818 166.797 93.0347 166.797 97.8003V98.2386C166.797 103.004 163.949 104.812 158.745 104.812C153.486 104.812 151.021 103.059 151.021 98.0742ZM187.578 81.5315V75.0678H179.361V81.5315H187.578ZM187.578 111.769V84.3251H179.361V111.769H187.578ZM203.93 108.975C210.065 108.975 213.297 106.181 214.173 102.128H214.611V108.318C214.611 113.686 213.023 114.781 207.764 114.781C202.177 114.781 200.972 113.85 200.972 110.783H192.755C192.755 117.685 198.343 121.628 207.216 121.628C217.022 121.628 222.828 117.356 222.828 107.77V84.3251H215.159V90.9532H214.721C213.845 86.1876 209.846 83.7774 204.258 83.7774C196.042 83.7774 191.057 88.7073 191.057 96.3761C191.057 104.1 195.768 108.975 203.93 108.975ZM199.329 96.3761C199.329 92.3226 201.629 90.8984 206.888 90.8984C211.982 90.8984 214.611 92.3226 214.611 96.0475V96.65C214.611 100.43 212.037 101.909 206.778 101.909C201.629 101.909 199.329 100.43 199.329 96.3761ZM241.81 112.316C251.177 112.316 257.476 106.729 257.476 98.0742C257.476 89.3099 251.177 83.7774 241.81 83.7774C232.443 83.7774 226.144 89.3099 226.144 98.0742C226.144 106.729 232.443 112.316 241.81 112.316ZM241.81 105.031C236.223 105.031 234.306 102.895 234.306 98.0742C234.306 93.2538 236.223 91.008 241.81 91.008C247.343 91.008 249.315 93.2538 249.315 98.0742C249.315 102.895 247.343 105.031 241.81 105.031ZM270.856 93.8564V84.3251H260.284V93.8564H270.856ZM263.516 119.492C268.172 119.492 270.856 117.246 270.856 112.645V102.183H260.284V111.769H264.94V112.7C264.94 114.124 264.392 114.398 263.297 114.398H260.613V119.492H263.516Z" fill="#59F2E0"/>
<path opacity="0.1" d="M140.805 179.932C152.253 179.932 159.539 174.235 159.539 164.923V164.101H150.391V164.923C150.391 169.743 147.652 172.044 140.969 172.044C132.917 172.044 129.904 169.196 129.904 161.034C129.904 152.872 132.917 150.024 140.969 150.024C147.652 150.024 150.391 152.324 150.391 157.145V157.966H159.539V157.145C159.539 147.833 152.199 142.136 140.805 142.136C128.699 142.136 121.195 149.585 121.195 161.034C121.195 172.482 128.699 179.932 140.805 179.932ZM177.725 179.932C187.092 179.932 193.391 174.345 193.391 165.69C193.391 156.926 187.092 151.393 177.725 151.393C168.358 151.393 162.058 156.926 162.058 165.69C162.058 174.345 168.358 179.932 177.725 179.932ZM177.725 172.647C172.138 172.647 170.22 170.51 170.22 165.69C170.22 160.87 172.138 158.624 177.725 158.624C183.257 158.624 185.229 160.87 185.229 165.69C185.229 170.51 183.257 172.647 177.725 172.647ZM209.017 179.932C215.316 179.932 218.931 177.193 219.972 171.77H220.41V179.384H228.079V142.683H219.863V159.226H219.37C218.438 154.625 215.097 151.393 208.579 151.393C200.417 151.393 195.761 156.926 195.761 165.69C195.761 174.345 200.471 179.932 209.017 179.932ZM204.087 165.69C204.087 160.65 206.552 158.898 211.81 158.898C217.069 158.898 219.863 160.65 219.863 165.416V165.854C219.863 170.62 217.014 172.428 211.81 172.428C206.552 172.428 204.087 170.675 204.087 165.69ZM240.643 149.147V142.683H232.427V149.147H240.643ZM240.643 179.384V151.941H232.427V179.384H240.643ZM256.995 176.591C263.13 176.591 266.362 173.797 267.239 169.743H267.677V175.933C267.677 181.301 266.088 182.397 260.83 182.397C255.242 182.397 254.037 181.466 254.037 178.398H245.821C245.821 185.3 251.408 189.244 260.282 189.244C270.087 189.244 275.893 184.972 275.893 175.386V151.941H268.225V158.569H267.786C266.91 153.803 262.911 151.393 257.324 151.393C249.107 151.393 244.123 156.323 244.123 163.992C244.123 171.715 248.833 176.591 256.995 176.591ZM252.394 163.992C252.394 159.938 254.695 158.514 259.953 158.514C265.048 158.514 267.677 159.938 267.677 163.663V164.266C267.677 168.045 265.102 169.524 259.844 169.524C254.695 169.524 252.394 168.045 252.394 163.992ZM294.875 179.932C304.242 179.932 310.542 174.345 310.542 165.69C310.542 156.926 304.242 151.393 294.875 151.393C285.509 151.393 279.209 156.926 279.209 165.69C279.209 174.345 285.509 179.932 294.875 179.932ZM294.875 172.647C289.288 172.647 287.371 170.51 287.371 165.69C287.371 160.87 289.288 158.624 294.875 158.624C300.408 158.624 302.38 160.87 302.38 165.69C302.38 170.51 300.408 172.647 294.875 172.647ZM323.922 161.472V151.941H313.35V161.472H323.922ZM316.581 187.108C321.237 187.108 323.922 184.862 323.922 180.261V169.798H313.35V179.384H318.006V180.315C318.006 181.74 317.458 182.014 316.362 182.014H313.678V187.108H316.581Z" fill="#59F2E0"/>
<path d="M20.9797 51.5478C32.4282 51.5478 39.7135 45.8509 39.7135 36.5388V35.7171H30.5657V36.5388C30.5657 41.3592 27.8269 43.6598 21.144 43.6598C13.0918 43.6598 10.079 40.8114 10.079 32.6496C10.079 24.4878 13.0918 21.6394 21.144 21.6394C27.8269 21.6394 30.5657 23.94 30.5657 28.7604V29.5821H39.7135V28.7604C39.7135 19.4483 32.3734 13.7514 20.9797 13.7514C8.87392 13.7514 1.36943 21.2012 1.36943 32.6496C1.36943 44.0981 8.87392 51.5478 20.9797 51.5478ZM57.8996 51.5478C67.2665 51.5478 73.5659 45.9605 73.5659 37.3057C73.5659 28.5413 67.2665 23.0088 57.8996 23.0088C48.5327 23.0088 42.2333 28.5413 42.2333 37.3057C42.2333 45.9605 48.5327 51.5478 57.8996 51.5478ZM57.8996 44.2624C52.3123 44.2624 50.3951 42.1261 50.3951 37.3057C50.3951 32.4853 52.3123 30.2394 57.8996 30.2394C63.4321 30.2394 65.4041 32.4853 65.4041 37.3057C65.4041 42.1261 63.4321 44.2624 57.8996 44.2624ZM89.1916 51.5478C95.4909 51.5478 99.1062 48.8089 100.147 43.386H100.585V51H108.254V14.2992H100.037V30.842H99.5445C98.6132 26.2407 95.2718 23.0088 88.7533 23.0088C80.5915 23.0088 75.9354 28.5413 75.9354 37.3057C75.9354 45.9605 80.6463 51.5478 89.1916 51.5478ZM84.2616 37.3057C84.2616 32.2662 86.7266 30.5133 91.9852 30.5133C97.2438 30.5133 100.037 32.2662 100.037 37.0318V37.47C100.037 42.2356 97.189 44.0433 91.9852 44.0433C86.7266 44.0433 84.2616 42.2904 84.2616 37.3057ZM120.818 20.7629V14.2992H112.602V20.7629H120.818ZM120.818 51V23.5566H112.602V51H120.818ZM137.17 48.2064C143.305 48.2064 146.537 45.4127 147.413 41.3592H147.852V47.549C147.852 52.9172 146.263 54.0128 141.004 54.0128C135.417 54.0128 134.212 53.0815 134.212 50.014H125.995C125.995 56.9159 131.583 60.8599 140.457 60.8599C150.262 60.8599 156.068 56.5873 156.068 47.0013V23.5566H148.399V30.1846H147.961C147.085 25.419 143.086 23.0088 137.499 23.0088C129.282 23.0088 124.297 27.9388 124.297 35.6076C124.297 43.3312 129.008 48.2064 137.17 48.2064ZM132.569 35.6076C132.569 31.5541 134.869 30.1299 140.128 30.1299C145.222 30.1299 147.852 31.5541 147.852 35.2789V35.8815C147.852 39.6611 145.277 41.1401 140.018 41.1401C134.869 41.1401 132.569 39.6611 132.569 35.6076ZM175.05 51.5478C184.417 51.5478 190.717 45.9605 190.717 37.3057C190.717 28.5413 184.417 23.0088 175.05 23.0088C165.683 23.0088 159.384 28.5413 159.384 37.3057C159.384 45.9605 165.683 51.5478 175.05 51.5478ZM175.05 44.2624C169.463 44.2624 167.546 42.1261 167.546 37.3057C167.546 32.4853 169.463 30.2394 175.05 30.2394C180.583 30.2394 182.555 32.4853 182.555 37.3057C182.555 42.1261 180.583 44.2624 175.05 44.2624ZM204.096 33.0878V23.5566H193.524V33.0878H204.096ZM196.756 58.7236C201.412 58.7236 204.096 56.4777 204.096 51.8764V41.414H193.524V51H198.18V51.9312C198.18 53.3554 197.633 53.6293 196.537 53.6293H193.853V58.7236H196.756Z" fill="#59F2E0"/>
</svg>
