<svg width="426" height="141" viewBox="0 0 426 141" fill="none" xmlns="http://www.w3.org/2000/svg">
<path d="M169 87L89 87V76L169 76V87Z" fill="white"/>
<path d="M314 68L89 68V57L314 57V68Z" fill="#FAF46E"/>
<path d="M181 49L89 49L89 38L181 38V49Z" fill="#D9D9D9"/>
<path d="M238.728 119.864V131.256L267.336 140.28V131.32L247.432 125.88V125.24L267.336 119.8V110.84L238.728 119.864Z" fill="#59F2E0"/>
<path d="M310.094 131.256V119.864L281.486 110.84V119.8L301.389 125.24V125.88L281.486 131.32V140.28L310.094 131.256Z" fill="#59F2E0"/>
<path d="M0 0H136V11H0V0Z" fill="#04C1C1"/>
<path d="M147 0H283V11H147V0Z" fill="white"/>
<path d="M292 38H372V49H292V38Z" fill="white"/>
<path d="M147 57H372V68H147V57Z" fill="#FAF46E"/>
<path d="M280 76H372V87H280V76Z" fill="#D9D9D9"/>
<path d="M290 0H426V11H290V0Z" fill="#FF5B99"/>
</svg>
